<svg height="788" viewBox="0 0 789 788" width="789" xmlns="http://www.w3.org/2000/svg" xmlns:xlink="http://www.w3.org/1999/xlink"><linearGradient id="a" x1="50%" x2="50%" y1="0%" y2="100%"><stop offset="0" stop-color="oklch(0.948 0.083 155.2)"/><stop offset="1" stop-color="oklch(0.86 0.18 156.2)"/></linearGradient><linearGradient id="b" x1="91.917358%" x2="9.544884%" y1="59.403%" y2="40.925014%"><stop offset="0" stop-color="oklch(0.829 0.17 155.4)"/><stop offset="1" stop-color="oklch(0.78 0.191 153.3)"/></linearGradient><linearGradient id="c" x1="22.33122%" x2="78.708654%" y1="74.09446%" y2="25%"><stop offset="0" stop-color="oklch(0.712 0.17 154.5)"/><stop offset="1" stop-color="oklch(0.476 0.11 154.2)"/></linearGradient><g fill="none" transform="translate(.977647 .004525)"><path d="m590.901832 52.8130104c-68.301181-39.4337098-145.477999-56.78454484-221.589741-52.05250467l-2.751863.18549427.152118.05370334c11.978646 4.28394502 23.6818 9.60642186 34.975892 15.96743036l2.112816 1.2048594c70.265236 40.5676571 113.550401 115.5397699 113.550391 196.6750699-.00001 77.078535-39.064888 148.594784-103.215041 190.335393l-.012176.007544.074758 1.31352c6.26877 96.581714 85.820322 173.188267 183.608751 174.773757l3.094053.025066c103.332909 0 187.100781-83.767859 187.100781-187.100748 0-140.834671-75.134364-270.971257-197.100739-341.3885846z" fill="url(#a)"/><path d="m373.816918 404.820318c-87.803652-43.369239-195.384633-11.634474-245.048682 74.386182-51.7333837 89.60485-21.032495 204.182127 68.572359 255.915514 122.116368 70.503956 272.569961 70.503983 394.686354.00007 68.38518-39.482191 122.065785-97.715378 156.065347-166.080066l1.267096-2.582718-.209206.180628c-9.709681 8.240625-20.181824 15.722593-31.349573 22.330103l-2.102089 1.228633c-70.340236 40.610943-157.002975 40.610933-227.343201-.000027-66.823215-38.580412-109.270928-108.243988-113.348632-184.751524l-.001299-.027813z" fill="url(#b)"/><path d="m453.258753 120.080184c-51.733384-89.6048503-166.310661-120.30573919-255.915515-68.5723526-122.1164111 70.5039046-197.343238 200.8005286-197.343238 341.8083716 0 78.964406 23.5911186 154.569769 65.7968924 218.196596l1.6021076 2.388185-.0507917-.270988c-2.2817498-12.529143-3.5252521-25.339268-3.6636498-38.314577l-.0129828-2.434778c.0000092-81.221903 43.3313873-156.274031 113.6716243-196.884974 66.823224-38.580396 148.377507-40.509405 216.673829-5.787033l.024971.01235 1.112736-.729326c80.61214-53.78937 107.214011-161.125184 59.631312-246.715925z" fill="url(#c)"/></g></svg>