<svg enable-background="new 0 0 1000 1000" height="1000" viewBox="0 0 1000 1000" width="1000" xmlns="http://www.w3.org/2000/svg"><svg enable-background="new 0 0 1000 1000" height="1000" viewBox="0 0 740 740" width="1000"><path d="m0 0h740v740h-740z" fill="#fff" opacity="0"/><g fill="#151a23"><path d="m240 80h20v20h-20z" shape-rendering="crispEdges"/><path d="m260 80h20v20h-20z" shape-rendering="crispEdges"/><path d="m280 80h20v20h-20z" shape-rendering="crispEdges"/><path d="m340 80h20v20h-20z" shape-rendering="crispEdges"/><path d="m360 80h20v20h-20z" shape-rendering="crispEdges"/><path d="m380 80h20v20h-20z" shape-rendering="crispEdges"/><path d="m460 80h20v20h-20z" shape-rendering="crispEdges"/><path d="m480 80h20v20h-20z" shape-rendering="crispEdges"/><path d="m240 100h20v20h-20z" shape-rendering="crispEdges"/><path d="m340 100h20v20h-20z" shape-rendering="crispEdges"/><path d="m400 100h20v20h-20z" shape-rendering="crispEdges"/><path d="m440 100h20v20h-20z" shape-rendering="crispEdges"/><path d="m260 120h20v20h-20z" shape-rendering="crispEdges"/><path d="m300 120h20v20h-20z" shape-rendering="crispEdges"/><path d="m400 120h20v20h-20z" shape-rendering="crispEdges"/><path d="m420 120h20v20h-20z" shape-rendering="crispEdges"/><path d="m480 120h20v20h-20z" shape-rendering="crispEdges"/><path d="m240 140h20v20h-20z" shape-rendering="crispEdges"/><path d="m360 140h20v20h-20z" shape-rendering="crispEdges"/><path d="m380 140h20v20h-20z" shape-rendering="crispEdges"/><path d="m420 140h20v20h-20z" shape-rendering="crispEdges"/><path d="m480 140h20v20h-20z" shape-rendering="crispEdges"/><path d="m260 160h20v20h-20z" shape-rendering="crispEdges"/><path d="m280 160h20v20h-20z" shape-rendering="crispEdges"/><path d="m300 160h20v20h-20z" shape-rendering="crispEdges"/><path d="m360 160h20v20h-20z" shape-rendering="crispEdges"/><path d="m400 160h20v20h-20z" shape-rendering="crispEdges"/><path d="m420 160h20v20h-20z" shape-rendering="crispEdges"/><path d="m460 160h20v20h-20z" shape-rendering="crispEdges"/><path d="m320 180h20v20h-20z" shape-rendering="crispEdges"/><path d="m340 180h20v20h-20z" shape-rendering="crispEdges"/><path d="m380 180h20v20h-20z" shape-rendering="crispEdges"/><path d="m400 180h20v20h-20z" shape-rendering="crispEdges"/><path d="m420 180h20v20h-20z" shape-rendering="crispEdges"/><path d="m440 180h20v20h-20z" shape-rendering="crispEdges"/><path d="m240 200h20v20h-20z" shape-rendering="crispEdges"/><path d="m280 200h20v20h-20z" shape-rendering="crispEdges"/><path d="m320 200h20v20h-20z" shape-rendering="crispEdges"/><path d="m360 200h20v20h-20z" shape-rendering="crispEdges"/><path d="m400 200h20v20h-20z" shape-rendering="crispEdges"/><path d="m440 200h20v20h-20z" shape-rendering="crispEdges"/><path d="m480 200h20v20h-20z" shape-rendering="crispEdges"/><path d="m240 220h20v20h-20z" shape-rendering="crispEdges"/><path d="m260 220h20v20h-20z" shape-rendering="crispEdges"/><path d="m280 220h20v20h-20z" shape-rendering="crispEdges"/><path d="m380 220h20v20h-20z" shape-rendering="crispEdges"/><path d="m400 220h20v20h-20z" shape-rendering="crispEdges"/><path d="m460 220h20v20h-20z" shape-rendering="crispEdges"/><path d="m80 240h20v20h-20z" shape-rendering="crispEdges"/><path d="m120 240h20v20h-20z" shape-rendering="crispEdges"/><path d="m140 240h20v20h-20z" shape-rendering="crispEdges"/><path d="m180 240h20v20h-20z" shape-rendering="crispEdges"/><path d="m200 240h20v20h-20z" shape-rendering="crispEdges"/><path d="m220 240h20v20h-20z" shape-rendering="crispEdges"/><path d="m260 240h20v20h-20z" shape-rendering="crispEdges"/><path d="m280 240h20v20h-20z" shape-rendering="crispEdges"/><path d="m340 240h20v20h-20z" shape-rendering="crispEdges"/><path d="m380 240h20v20h-20z" shape-rendering="crispEdges"/><path d="m440 240h20v20h-20z" shape-rendering="crispEdges"/><path d="m460 240h20v20h-20z" shape-rendering="crispEdges"/><path d="m520 240h20v20h-20z" shape-rendering="crispEdges"/><path d="m580 240h20v20h-20z" shape-rendering="crispEdges"/><path d="m620 240h20v20h-20z" shape-rendering="crispEdges"/><path d="m640 240h20v20h-20z" shape-rendering="crispEdges"/><path d="m80 260h20v20h-20z" shape-rendering="crispEdges"/><path d="m160 260h20v20h-20z" shape-rendering="crispEdges"/><path d="m180 260h20v20h-20z" shape-rendering="crispEdges"/><path d="m240 260h20v20h-20z" shape-rendering="crispEdges"/><path d="m320 260h20v20h-20z" shape-rendering="crispEdges"/><path d="m340 260h20v20h-20z" shape-rendering="crispEdges"/><path d="m360 260h20v20h-20z" shape-rendering="crispEdges"/><path d="m380 260h20v20h-20z" shape-rendering="crispEdges"/><path d="m440 260h20v20h-20z" shape-rendering="crispEdges"/><path d="m480 260h20v20h-20z" shape-rendering="crispEdges"/><path d="m500 260h20v20h-20z" shape-rendering="crispEdges"/><path d="m520 260h20v20h-20z" shape-rendering="crispEdges"/><path d="m540 260h20v20h-20z" shape-rendering="crispEdges"/><path d="m560 260h20v20h-20z" shape-rendering="crispEdges"/><path d="m580 260h20v20h-20z" shape-rendering="crispEdges"/><path d="m620 260h20v20h-20z" shape-rendering="crispEdges"/><path d="m80 280h20v20h-20z" shape-rendering="crispEdges"/><path d="m100 280h20v20h-20z" shape-rendering="crispEdges"/><path d="m120 280h20v20h-20z" shape-rendering="crispEdges"/><path d="m200 280h20v20h-20z" shape-rendering="crispEdges"/><path d="m220 280h20v20h-20z" shape-rendering="crispEdges"/><path d="m240 280h20v20h-20z" shape-rendering="crispEdges"/><path d="m280 280h20v20h-20z" shape-rendering="crispEdges"/><path d="m340 280h20v20h-20z" shape-rendering="crispEdges"/><path d="m400 280h20v20h-20z" shape-rendering="crispEdges"/><path d="m440 280h20v20h-20z" shape-rendering="crispEdges"/><path d="m480 280h20v20h-20z" shape-rendering="crispEdges"/><path d="m500 280h20v20h-20z" shape-rendering="crispEdges"/><path d="m560 280h20v20h-20z" shape-rendering="crispEdges"/><path d="m580 280h20v20h-20z" shape-rendering="crispEdges"/><path d="m620 280h20v20h-20z" shape-rendering="crispEdges"/><path d="m100 300h20v20h-20z" shape-rendering="crispEdges"/><path d="m140 300h20v20h-20z" shape-rendering="crispEdges"/><path d="m240 300h20v20h-20z" shape-rendering="crispEdges"/><path d="m400 300h20v20h-20z" shape-rendering="crispEdges"/><path d="m420 300h20v20h-20z" shape-rendering="crispEdges"/><path d="m480 300h20v20h-20z" shape-rendering="crispEdges"/><path d="m500 300h20v20h-20z" shape-rendering="crispEdges"/><path d="m540 300h20v20h-20z" shape-rendering="crispEdges"/><path d="m620 300h20v20h-20z" shape-rendering="crispEdges"/><path d="m80 320h20v20h-20z" shape-rendering="crispEdges"/><path d="m120 320h20v20h-20z" shape-rendering="crispEdges"/><path d="m180 320h20v20h-20z" shape-rendering="crispEdges"/><path d="m200 320h20v20h-20z" shape-rendering="crispEdges"/><path d="m220 320h20v20h-20z" shape-rendering="crispEdges"/><path d="m240 320h20v20h-20z" shape-rendering="crispEdges"/><path d="m260 320h20v20h-20z" shape-rendering="crispEdges"/><path d="m280 320h20v20h-20z" shape-rendering="crispEdges"/><path d="m360 320h20v20h-20z" shape-rendering="crispEdges"/><path d="m380 320h20v20h-20z" shape-rendering="crispEdges"/><path d="m420 320h20v20h-20z" shape-rendering="crispEdges"/><path d="m480 320h20v20h-20z" shape-rendering="crispEdges"/><path d="m540 320h20v20h-20z" shape-rendering="crispEdges"/><path d="m560 320h20v20h-20z" shape-rendering="crispEdges"/><path d="m80 340h20v20h-20z" shape-rendering="crispEdges"/><path d="m100 340h20v20h-20z" shape-rendering="crispEdges"/><path d="m120 340h20v20h-20z" shape-rendering="crispEdges"/><path d="m140 340h20v20h-20z" shape-rendering="crispEdges"/><path d="m160 340h20v20h-20z" shape-rendering="crispEdges"/><path d="m220 340h20v20h-20z" shape-rendering="crispEdges"/><path d="m240 340h20v20h-20z" shape-rendering="crispEdges"/><path d="m260 340h20v20h-20z" shape-rendering="crispEdges"/><path d="m360 340h20v20h-20z" shape-rendering="crispEdges"/><path d="m400 340h20v20h-20z" shape-rendering="crispEdges"/><path d="m420 340h20v20h-20z" shape-rendering="crispEdges"/><path d="m440 340h20v20h-20z" shape-rendering="crispEdges"/><path d="m460 340h20v20h-20z" shape-rendering="crispEdges"/><path d="m520 340h20v20h-20z" shape-rendering="crispEdges"/><path d="m540 340h20v20h-20z" shape-rendering="crispEdges"/><path d="m560 340h20v20h-20z" shape-rendering="crispEdges"/><path d="m580 340h20v20h-20z" shape-rendering="crispEdges"/><path d="m600 340h20v20h-20z" shape-rendering="crispEdges"/><path d="m160 360h20v20h-20z" shape-rendering="crispEdges"/><path d="m200 360h20v20h-20z" shape-rendering="crispEdges"/><path d="m240 360h20v20h-20z" shape-rendering="crispEdges"/><path d="m260 360h20v20h-20z" shape-rendering="crispEdges"/><path d="m340 360h20v20h-20z" shape-rendering="crispEdges"/><path d="m380 360h20v20h-20z" shape-rendering="crispEdges"/><path d="m400 360h20v20h-20z" shape-rendering="crispEdges"/><path d="m420 360h20v20h-20z" shape-rendering="crispEdges"/><path d="m440 360h20v20h-20z" shape-rendering="crispEdges"/><path d="m500 360h20v20h-20z" shape-rendering="crispEdges"/><path d="m520 360h20v20h-20z" shape-rendering="crispEdges"/><path d="m560 360h20v20h-20z" shape-rendering="crispEdges"/><path d="m600 360h20v20h-20z" shape-rendering="crispEdges"/><path d="m80 380h20v20h-20z" shape-rendering="crispEdges"/><path d="m100 380h20v20h-20z" shape-rendering="crispEdges"/><path d="m120 380h20v20h-20z" shape-rendering="crispEdges"/><path d="m140 380h20v20h-20z" shape-rendering="crispEdges"/><path d="m180 380h20v20h-20z" shape-rendering="crispEdges"/><path d="m240 380h20v20h-20z" shape-rendering="crispEdges"/><path d="m260 380h20v20h-20z" shape-rendering="crispEdges"/><path d="m360 380h20v20h-20z" shape-rendering="crispEdges"/><path d="m400 380h20v20h-20z" shape-rendering="crispEdges"/><path d="m440 380h20v20h-20z" shape-rendering="crispEdges"/><path d="m460 380h20v20h-20z" shape-rendering="crispEdges"/><path d="m520 380h20v20h-20z" shape-rendering="crispEdges"/><path d="m540 380h20v20h-20z" shape-rendering="crispEdges"/><path d="m560 380h20v20h-20z" shape-rendering="crispEdges"/><path d="m620 380h20v20h-20z" shape-rendering="crispEdges"/><path d="m640 380h20v20h-20z" shape-rendering="crispEdges"/><path d="m80 400h20v20h-20z" shape-rendering="crispEdges"/><path d="m140 400h20v20h-20z" shape-rendering="crispEdges"/><path d="m200 400h20v20h-20z" shape-rendering="crispEdges"/><path d="m220 400h20v20h-20z" shape-rendering="crispEdges"/><path d="m240 400h20v20h-20z" shape-rendering="crispEdges"/><path d="m260 400h20v20h-20z" shape-rendering="crispEdges"/><path d="m320 400h20v20h-20z" shape-rendering="crispEdges"/><path d="m360 400h20v20h-20z" shape-rendering="crispEdges"/><path d="m380 400h20v20h-20z" shape-rendering="crispEdges"/><path d="m400 400h20v20h-20z" shape-rendering="crispEdges"/><path d="m420 400h20v20h-20z" shape-rendering="crispEdges"/><path d="m480 400h20v20h-20z" shape-rendering="crispEdges"/><path d="m520 400h20v20h-20z" shape-rendering="crispEdges"/><path d="m540 400h20v20h-20z" shape-rendering="crispEdges"/><path d="m600 400h20v20h-20z" shape-rendering="crispEdges"/><path d="m620 400h20v20h-20z" shape-rendering="crispEdges"/><path d="m120 420h20v20h-20z" shape-rendering="crispEdges"/><path d="m180 420h20v20h-20z" shape-rendering="crispEdges"/><path d="m240 420h20v20h-20z" shape-rendering="crispEdges"/><path d="m320 420h20v20h-20z" shape-rendering="crispEdges"/><path d="m360 420h20v20h-20z" shape-rendering="crispEdges"/><path d="m400 420h20v20h-20z" shape-rendering="crispEdges"/><path d="m440 420h20v20h-20z" shape-rendering="crispEdges"/><path d="m460 420h20v20h-20z" shape-rendering="crispEdges"/><path d="m500 420h20v20h-20z" shape-rendering="crispEdges"/><path d="m520 420h20v20h-20z" shape-rendering="crispEdges"/><path d="m540 420h20v20h-20z" shape-rendering="crispEdges"/><path d="m80 440h20v20h-20z" shape-rendering="crispEdges"/><path d="m120 440h20v20h-20z" shape-rendering="crispEdges"/><path d="m180 440h20v20h-20z" shape-rendering="crispEdges"/><path d="m200 440h20v20h-20z" shape-rendering="crispEdges"/><path d="m220 440h20v20h-20z" shape-rendering="crispEdges"/><path d="m240 440h20v20h-20z" shape-rendering="crispEdges"/><path d="m280 440h20v20h-20z" shape-rendering="crispEdges"/><path d="m300 440h20v20h-20z" shape-rendering="crispEdges"/><path d="m320 440h20v20h-20z" shape-rendering="crispEdges"/><path d="m340 440h20v20h-20z" shape-rendering="crispEdges"/><path d="m360 440h20v20h-20z" shape-rendering="crispEdges"/><path d="m380 440h20v20h-20z" shape-rendering="crispEdges"/><path d="m400 440h20v20h-20z" shape-rendering="crispEdges"/><path d="m420 440h20v20h-20z" shape-rendering="crispEdges"/><path d="m480 440h20v20h-20z" shape-rendering="crispEdges"/><path d="m500 440h20v20h-20z" shape-rendering="crispEdges"/><path d="m580 440h20v20h-20z" shape-rendering="crispEdges"/><path d="m600 440h20v20h-20z" shape-rendering="crispEdges"/><path d="m620 440h20v20h-20z" shape-rendering="crispEdges"/><path d="m640 440h20v20h-20z" shape-rendering="crispEdges"/><path d="m120 460h20v20h-20z" shape-rendering="crispEdges"/><path d="m160 460h20v20h-20z" shape-rendering="crispEdges"/><path d="m180 460h20v20h-20z" shape-rendering="crispEdges"/><path d="m220 460h20v20h-20z" shape-rendering="crispEdges"/><path d="m240 460h20v20h-20z" shape-rendering="crispEdges"/><path d="m260 460h20v20h-20z" shape-rendering="crispEdges"/><path d="m280 460h20v20h-20z" shape-rendering="crispEdges"/><path d="m340 460h20v20h-20z" shape-rendering="crispEdges"/><path d="m360 460h20v20h-20z" shape-rendering="crispEdges"/><path d="m420 460h20v20h-20z" shape-rendering="crispEdges"/><path d="m460 460h20v20h-20z" shape-rendering="crispEdges"/><path d="m520 460h20v20h-20z" shape-rendering="crispEdges"/><path d="m600 460h20v20h-20z" shape-rendering="crispEdges"/><path d="m620 460h20v20h-20z" shape-rendering="crispEdges"/><path d="m100 480h20v20h-20z" shape-rendering="crispEdges"/><path d="m120 480h20v20h-20z" shape-rendering="crispEdges"/><path d="m160 480h20v20h-20z" shape-rendering="crispEdges"/><path d="m180 480h20v20h-20z" shape-rendering="crispEdges"/><path d="m200 480h20v20h-20z" shape-rendering="crispEdges"/><path d="m220 480h20v20h-20z" shape-rendering="crispEdges"/><path d="m260 480h20v20h-20z" shape-rendering="crispEdges"/><path d="m300 480h20v20h-20z" shape-rendering="crispEdges"/><path d="m320 480h20v20h-20z" shape-rendering="crispEdges"/><path d="m340 480h20v20h-20z" shape-rendering="crispEdges"/><path d="m360 480h20v20h-20z" shape-rendering="crispEdges"/><path d="m400 480h20v20h-20z" shape-rendering="crispEdges"/><path d="m440 480h20v20h-20z" shape-rendering="crispEdges"/><path d="m460 480h20v20h-20z" shape-rendering="crispEdges"/><path d="m480 480h20v20h-20z" shape-rendering="crispEdges"/><path d="m500 480h20v20h-20z" shape-rendering="crispEdges"/><path d="m520 480h20v20h-20z" shape-rendering="crispEdges"/><path d="m540 480h20v20h-20z" shape-rendering="crispEdges"/><path d="m560 480h20v20h-20z" shape-rendering="crispEdges"/><path d="m600 480h20v20h-20z" shape-rendering="crispEdges"/><path d="m640 480h20v20h-20z" shape-rendering="crispEdges"/><path d="m240 500h20v20h-20z" shape-rendering="crispEdges"/><path d="m260 500h20v20h-20z" shape-rendering="crispEdges"/><path d="m300 500h20v20h-20z" shape-rendering="crispEdges"/><path d="m380 500h20v20h-20z" shape-rendering="crispEdges"/><path d="m400 500h20v20h-20z" shape-rendering="crispEdges"/><path d="m440 500h20v20h-20z" shape-rendering="crispEdges"/><path d="m480 500h20v20h-20z" shape-rendering="crispEdges"/><path d="m560 500h20v20h-20z" shape-rendering="crispEdges"/><path d="m620 500h20v20h-20z" shape-rendering="crispEdges"/><path d="m240 520h20v20h-20z" shape-rendering="crispEdges"/><path d="m260 520h20v20h-20z" shape-rendering="crispEdges"/><path d="m280 520h20v20h-20z" shape-rendering="crispEdges"/><path d="m300 520h20v20h-20z" shape-rendering="crispEdges"/><path d="m320 520h20v20h-20z" shape-rendering="crispEdges"/><path d="m360 520h20v20h-20z" shape-rendering="crispEdges"/><path d="m380 520h20v20h-20z" shape-rendering="crispEdges"/><path d="m420 520h20v20h-20z" shape-rendering="crispEdges"/><path d="m480 520h20v20h-20z" shape-rendering="crispEdges"/><path d="m520 520h20v20h-20z" shape-rendering="crispEdges"/><path d="m560 520h20v20h-20z" shape-rendering="crispEdges"/><path d="m580 520h20v20h-20z" shape-rendering="crispEdges"/><path d="m620 520h20v20h-20z" shape-rendering="crispEdges"/><path d="m240 540h20v20h-20z" shape-rendering="crispEdges"/><path d="m280 540h20v20h-20z" shape-rendering="crispEdges"/><path d="m340 540h20v20h-20z" shape-rendering="crispEdges"/><path d="m360 540h20v20h-20z" shape-rendering="crispEdges"/><path d="m380 540h20v20h-20z" shape-rendering="crispEdges"/><path d="m460 540h20v20h-20z" shape-rendering="crispEdges"/><path d="m480 540h20v20h-20z" shape-rendering="crispEdges"/><path d="m560 540h20v20h-20z" shape-rendering="crispEdges"/><path d="m580 540h20v20h-20z" shape-rendering="crispEdges"/><path d="m600 540h20v20h-20z" shape-rendering="crispEdges"/><path d="m280 560h20v20h-20z" shape-rendering="crispEdges"/><path d="m400 560h20v20h-20z" shape-rendering="crispEdges"/><path d="m440 560h20v20h-20z" shape-rendering="crispEdges"/><path d="m480 560h20v20h-20z" shape-rendering="crispEdges"/><path d="m500 560h20v20h-20z" shape-rendering="crispEdges"/><path d="m520 560h20v20h-20z" shape-rendering="crispEdges"/><path d="m540 560h20v20h-20z" shape-rendering="crispEdges"/><path d="m560 560h20v20h-20z" shape-rendering="crispEdges"/><path d="m600 560h20v20h-20z" shape-rendering="crispEdges"/><path d="m620 560h20v20h-20z" shape-rendering="crispEdges"/><path d="m640 560h20v20h-20z" shape-rendering="crispEdges"/><path d="m240 580h20v20h-20z" shape-rendering="crispEdges"/><path d="m260 580h20v20h-20z" shape-rendering="crispEdges"/><path d="m300 580h20v20h-20z" shape-rendering="crispEdges"/><path d="m320 580h20v20h-20z" shape-rendering="crispEdges"/><path d="m340 580h20v20h-20z" shape-rendering="crispEdges"/><path d="m460 580h20v20h-20z" shape-rendering="crispEdges"/><path d="m500 580h20v20h-20z" shape-rendering="crispEdges"/><path d="m520 580h20v20h-20z" shape-rendering="crispEdges"/><path d="m560 580h20v20h-20z" shape-rendering="crispEdges"/><path d="m600 580h20v20h-20z" shape-rendering="crispEdges"/><path d="m620 580h20v20h-20z" shape-rendering="crispEdges"/><path d="m240 600h20v20h-20z" shape-rendering="crispEdges"/><path d="m260 600h20v20h-20z" shape-rendering="crispEdges"/><path d="m320 600h20v20h-20z" shape-rendering="crispEdges"/><path d="m340 600h20v20h-20z" shape-rendering="crispEdges"/><path d="m360 600h20v20h-20z" shape-rendering="crispEdges"/><path d="m420 600h20v20h-20z" shape-rendering="crispEdges"/><path d="m440 600h20v20h-20z" shape-rendering="crispEdges"/><path d="m540 600h20v20h-20z" shape-rendering="crispEdges"/><path d="m560 600h20v20h-20z" shape-rendering="crispEdges"/><path d="m580 600h20v20h-20z" shape-rendering="crispEdges"/><path d="m600 600h20v20h-20z" shape-rendering="crispEdges"/><path d="m640 600h20v20h-20z" shape-rendering="crispEdges"/><path d="m280 620h20v20h-20z" shape-rendering="crispEdges"/><path d="m320 620h20v20h-20z" shape-rendering="crispEdges"/><path d="m340 620h20v20h-20z" shape-rendering="crispEdges"/><path d="m360 620h20v20h-20z" shape-rendering="crispEdges"/><path d="m380 620h20v20h-20z" shape-rendering="crispEdges"/><path d="m420 620h20v20h-20z" shape-rendering="crispEdges"/><path d="m440 620h20v20h-20z" shape-rendering="crispEdges"/><path d="m460 620h20v20h-20z" shape-rendering="crispEdges"/><path d="m580 620h20v20h-20z" shape-rendering="crispEdges"/><path d="m600 620h20v20h-20z" shape-rendering="crispEdges"/><path d="m640 620h20v20h-20z" shape-rendering="crispEdges"/><path d="m240 640h20v20h-20z" shape-rendering="crispEdges"/><path d="m280 640h20v20h-20z" shape-rendering="crispEdges"/><path d="m300 640h20v20h-20z" shape-rendering="crispEdges"/><path d="m320 640h20v20h-20z" shape-rendering="crispEdges"/><path d="m420 640h20v20h-20z" shape-rendering="crispEdges"/><path d="m440 640h20v20h-20z" shape-rendering="crispEdges"/><path d="m480 640h20v20h-20z" shape-rendering="crispEdges"/><path d="m520 640h20v20h-20z" shape-rendering="crispEdges"/><path d="m540 640h20v20h-20z" shape-rendering="crispEdges"/><path d="m580 640h20v20h-20z" shape-rendering="crispEdges"/><path d="m620 640h20v20h-20z" shape-rendering="crispEdges"/><path d="m80 80h112a28 28 0 0 1 28 28v84a28 28 0 0 1 -28 28h-84a28 28 0 0 1 -28-28v-84a28 28 0 0 1 28-28zm20 20h80a20 20 0 0 1 20 20v60a20 20 0 0 1 -20 20h-60a20 20 0 0 1 -20-20v-60a20 20 0 0 1 20-20z" fill-rule="evenodd"/><path d="m520 80h112a28 28 0 0 1 28 28v84a28 28 0 0 1 -28 28h-84a28 28 0 0 1 -28-28v-84a28 28 0 0 1 28-28zm20 20h80a20 20 0 0 1 20 20v60a20 20 0 0 1 -20 20h-60a20 20 0 0 1 -20-20v-60a20 20 0 0 1 20-20z" fill-rule="evenodd"/><path d="m120 120h60v60h-60z" shape-rendering="crispEdges"/><path d="m560 120h60v60h-60z" shape-rendering="crispEdges"/><path d="m80 520h112a28 28 0 0 1 28 28v84a28 28 0 0 1 -28 28h-84a28 28 0 0 1 -28-28v-84a28 28 0 0 1 28-28zm20 20h80a20 20 0 0 1 20 20v60a20 20 0 0 1 -20 20h-60a20 20 0 0 1 -20-20v-60a20 20 0 0 1 20-20z" fill-rule="evenodd"/><path d="m120 560h60v60h-60z" shape-rendering="crispEdges"/></g></svg></svg>