<svg height="40" viewBox="0 0 135 40" width="135" xmlns="http://www.w3.org/2000/svg" xmlns:xlink="http://www.w3.org/1999/xlink"><linearGradient id="a" x1="61.29337%" x2="25.961127%" y1="95.567071%" y2="27.836162%"><stop offset="0" stop-color="#00a0ff"/><stop offset=".00657445" stop-color="#00a1ff"/><stop offset=".2601" stop-color="#00beff"/><stop offset=".5122" stop-color="#00d2ff"/><stop offset=".7604" stop-color="#00dfff"/><stop offset="1" stop-color="#00e3ff"/></linearGradient><linearGradient id="b" x1="107.590142%" x2="-130.463869%" y1="50.8682%" y2="50.8682%"><stop offset="0" stop-color="#ffe000"/><stop offset=".4087" stop-color="#ffbd00"/><stop offset=".7754" stop-color="#ffa500"/><stop offset="1" stop-color="#ff9c00"/></linearGradient><linearGradient id="c" x1="86.725226%" x2="-50.47959%" y1="69.328012%" y2="-37.051194%"><stop offset="0" stop-color="#ff3a44"/><stop offset="1" stop-color="#c31162"/></linearGradient><linearGradient id="d" x1="-19.329694%" x2="41.841175%" y1="112.411183%" y2="65.059386%"><stop offset="0" stop-color="#32a071"/><stop offset=".0685" stop-color="#2da771"/><stop offset=".4762" stop-color="#15cf74"/><stop offset=".8009" stop-color="#06e775"/><stop offset="1" stop-color="#00f076"/></linearGradient><linearGradient id="e" x1="6809.6%" x2="-17387.4%" y1="4300.35%" y2="4300.35%"><stop offset="0" stop-color="#ccb300"/><stop offset=".4087" stop-color="#cc9700"/><stop offset=".7754" stop-color="#cc8400"/><stop offset="1" stop-color="#cc7d00"/></linearGradient><linearGradient id="f" x1="86.246884%" x2="-50.141433%" y1="69.439466%" y2="-1.910527%"><stop offset="0" stop-color="#cc2e36"/><stop offset="1" stop-color="#9c0e4e"/></linearGradient><linearGradient id="g" x1="944.82193%" x2="-354.419674%" y1="1531.75135%" y2="449.567965%"><stop offset="0" stop-color="#008de0"/><stop offset=".00657445" stop-color="#008de0"/><stop offset=".2601" stop-color="#00a7e0"/><stop offset=".5122" stop-color="#00b8e0"/><stop offset=".7604" stop-color="#00c4e0"/><stop offset="1" stop-color="#00c7e0"/></linearGradient><linearGradient id="h" x1="14404.35%" x2="-8353.95%" y1="10180.7%" y2="-12577.6%"><stop offset="0" stop-color="#e0333c"/><stop offset="1" stop-color="#ab0f56"/></linearGradient><linearGradient id="i" x1="112.78588%" x2="-288.225058%" y1="100.021313%" y2="100.021313%"><stop offset="0" stop-color="#e0c500"/><stop offset=".4087" stop-color="#e0a600"/><stop offset=".7754" stop-color="#e09100"/><stop offset="1" stop-color="#e08900"/></linearGradient><linearGradient id="j" x1="112.785032%" x2="-288.199324%" y1="-.023679%" y2="-.023679%"><stop offset="0" stop-color="#ffe840"/><stop offset=".4087" stop-color="#ffce40"/><stop offset=".7754" stop-color="#ffbc40"/><stop offset="1" stop-color="#ffb540"/></linearGradient><linearGradient id="k" x1="944.581131%" x2="-354.288369%" y1="23.38238%" y2="-1009.83193%"><stop offset="0" stop-color="#40b8ff"/><stop offset=".00657445" stop-color="#40b9ff"/><stop offset=".2601" stop-color="#40ceff"/><stop offset=".5122" stop-color="#40ddff"/><stop offset=".7604" stop-color="#40e7ff"/><stop offset="1" stop-color="#40eaff"/></linearGradient><linearGradient id="l" x1="-18.806933%" x2="42.095958%" y1="85.520182%" y2="53.658069%"><stop offset="0" stop-color="#65b895"/><stop offset=".0685" stop-color="#62bd95"/><stop offset=".4762" stop-color="#50db97"/><stop offset=".8009" stop-color="#44ed98"/><stop offset="1" stop-color="#40f498"/></linearGradient><mask id="m" fill="#fff"><path d="m.5371 0-.0743.0711c-.291.3079-.4628.786-.4628 1.4051v-.1457 22.116.0051c0-.0019 0-.0035 0-.0055v-.1461c0 .6704.2003 1.1754.5359 1.4782l12.3898-12.3895zm-.5371 23.4528c0 .0551.0015.1086.0043.1613-.0028-.0523-.0043-.1062-.0043-.1613" fill="#fff" fill-rule="evenodd"/></mask><mask id="n" fill="#fff"><path d="m4.1293 0 .0942.0535 4.8929 2.7801c.4665.2652.7774.5867.9325.9269-.1547-.3402-.4657-.6621-.9325-.9273l-4.8929-2.7801zm.0012.1465-4.1305 4.1312 4.1301 4.1305 4.9863-2.8328c.6332-.3598.9887-.8235 1.0481-1.2973 0-.0004 0-.0012 0-.0019-.0594-.4727-.4149-.9368-1.0481-1.2965z" fill="#fff" fill-rule="evenodd"/></mask><mask id="o" fill="#fff"><path d="m.9512 0c-.3461 0-.6481.1125-.8836.325l.0004.0004c.2355-.2125.5379-.3254.884-.3254.03 0 .0605.0008.0914.0023-.0313-.0015-.0622-.0023-.0922-.0023m.0004.14649894c-.3461-.00039894-.6481.11250106-.8836.32500106v.0003l12.3886 12.3887 4.1305-4.1312-14.5152-8.2473c-.4016-.2277-.7821-.33550106-1.1203-.33550106m-.8871.18120106c-.0219.0199-.0434.041-.0645.0629z" fill="#fff" fill-rule="evenodd"/></mask><mask id="p" fill="#fff"><path d="m12.3898 0-12.3898 12.3895c.2355.2121.5371.3246.8828.3246.3391 0 .7199-.1082 1.1223-.3363l14.5148-8.2473zm4.2235 4.2238-14.6082 8.3c-.4024.2282-.7832.3364-1.1223.3364-.0016 0-.0027 0-.0043 0h.0059c.3383 0 .7187-.1078 1.1207-.336z" fill="#fff" fill-rule="evenodd"/></mask><mask id="q" fill="#fff"><path d="m.00386667.031.12559999.07133333z" fill="#fff" fill-rule="evenodd"/></mask><mask id="r" fill="#fff"><path d="m.9583-0c-.3461 0-.6485.1129-.884.3254l-.0004-.0004c-.0008.0008-.002.0019-.0031.0027l-.0645.0629c-.002.002-.0039.0043-.0063.0066l.0743.0743c.2355-.2125.5375-.3254.8836-.325.3382 0 .7187.1078 1.1203.3355l14.5152 8.2473.093-.093-.0942-.0535-14.514-8.2469c-.366-.2074-.7141-.3156-1.0285-.3336-.0309-.0015-.0614-.0023-.0914-.0023" fill="#fff" fill-rule="evenodd"/></mask><mask id="s" fill="#fff"><path d="m.8616645 0c-.54179855.3079-.8616645.7856-.8616645 1.4051v.1457c0-.6191.31986595-1.0972.8616645-1.4051l.1383355-.0711z" fill="#fff" fill-rule="evenodd"/></mask><mask id="t" fill="#fff"><path d="m.01713333.01693333.09906667.09946667v-.0004z" fill="#fff" fill-rule="evenodd"/></mask><mask id="u" fill="#fff"><path d="m.093 0-.093.093 4.9859 2.8332c.6332.3597.9887.8238 1.0481 1.2965 0-.1735-.0387-.3469-.1156-.5157-.1551-.3402-.466-.6617-.9325-.9269z" fill="#fff" fill-rule="evenodd"/></mask><mask id="v" fill="#fff"><path d="m6.0344 0c-.0594.4738-.4149.9375-1.0481 1.2973l-4.9863 2.8328.093.093h.0004l4.8929-2.7801c.6981-.3969 1.0477-.9199 1.0481-1.443" fill="#fff" fill-rule="evenodd"/></mask><mask id="w" fill="#fff"><path d="m0 0v.1461.0055.0012c0 .0551.00279903.109.00802389.1613v.0024c0 .0007 0 .0015.0005598.0023v.0047.0012c.0561672.5332.36518007.9492.85501026 1.2269l.13640605-.0734c-.62623624-.3028-1-.8078-1-1.4782" fill="#fff" fill-rule="evenodd"/></mask><mask id="x" fill="#fff"><path d="m16.593 0-14.5148 8.2473c-.4024.2281-.7832.3363-1.1223.3363-.3457 0-.6473-.1125-.8828-.3246l-.0731.0734c.0231.0242.0465.0477.0711.0699.0008.0008.002.0016.0028.0024.2336.2105.532.323.8746.325h.0031.0043c.3391 0 .7199-.1082 1.1223-.3364l14.6082-8.3-.0004-.0003z" fill="#fff" fill-rule="evenodd"/></mask><g fill="none" fill-rule="nonzero"><path d="m0 5c0-2.75 2.25-5 5-5h125c2.75 0 5 2.25 5 5v30c0 2.75-2.25 5-5 5h-125c-2.75 0-5-2.25-5-5z" fill="#fff" transform="matrix(1 -0 -0 -1 0 40)"/><path d="m130 0h-125c-2.75 0-5 2.25-5 5v30c0 2.75 2.25 5 5 5h125c2.75 0 5-2.25 5-5v-30c0-2.75-2.25-5-5-5" fill="#000" transform="matrix(1 -0 -0 -1 0 40)"/><path d="m130 40h-125c-2.75 0-5-2.25-5-5v-30c0-2.75 2.25-5 5-5h125c2.75 0 5 2.25 5 5v30c0 2.75-2.25 5-5 5m0-.8c2.316 0 4.2-1.8844 4.2-4.2v-30c0-2.316-1.884-4.2004-4.2-4.2004h-125c-2.3156 0-4.2 1.8844-4.2 4.2004v30c0 2.3156 1.8844 4.2 4.2 4.2z" fill="#a6a6a6" transform="matrix(1 -0 -0 -1 0 40)"/><g fill="#fff"><path d="m47.4184 9.7562c0-.8378-.2481-1.505-.745-2.0027-.5644-.5918-1.3-.8879-2.2043-.8879-.866 0-1.6023.3-2.2078.9008-.6066.6004-.9093 1.3449-.9093 2.2332 0 .8887.3027 1.6328.9093 2.2336.6055.6004 1.3418.9008 2.2078.9008.4297 0 .8411-.084 1.2317-.2516.3906-.168.7039-.391.9383-.6703l-.5274-.5277c-.3972.4746-.9441.7117-1.6426.7117-.6316 0-1.1777-.2219-1.6386-.666-.461-.4446-.6914-1.0211-.6914-1.7305s.2304-1.2859.6914-1.7305c.4609-.4441 1.007-.666 1.6386-.666.67 0 1.2286.2231 1.6758.6699.2903.2911.4582.6957.5031 1.2153h-2.1789v.7207h2.9075c.0281-.1567.0418-.3071.0418-.4528" transform="matrix(1 -0 -0 -1 0 19.9996)"/><path d="m47.4184 9.75620002h-.1c-.0008-.8187-.2399-1.4546-.7157-1.932l-.0011-.0008-.0004-.0008c-.5465-.5714-1.2489-.8558-2.1321-.857-.8429.0012-1.5484.2887-2.1375.8715-.5878.584-.8785 1.2969-.8796 2.1625.0011.86599998.2918 1.57849998.8796 2.16209998.5891.5832 1.2946.8711 2.1375.8723.4168 0 .8137-.0813 1.1922-.2434.3789-.1633.6782-.3773.9012-.643l.0766.0645-.0707.0707-.5274-.5281.0707-.0703.077.064c-.4157.4981-.9992.7492-1.7196.7477-.655.0008-1.2312-.2332-1.7078-.6942-.4812-.4625-.723-1.0714-.7222-1.80229998-.0008-.7309.241-1.3398.7222-1.8023.4766-.461 1.0528-.695 1.7078-.6942.6922-.0012 1.2821.2336 1.7465.6992.3102.311.486.7418.5321 1.2774l.0093.1086h-2.1879v.52069998h2.8075v.1l-.0985-.0176c.0274-.1516.0403-.29569998.0403-.43519998h.1.1000014c0 .152-.0141014.30819998-.0434014.47069998l-.0148.0821h-3.0911v-.82069998-.1h2.2789v.1l-.0996.0086c-.0441-.5032-.2043-.8821-.4742-1.1532-.4297-.4281-.957-.6394-1.6051-.6406-.6082.0008-1.1242.2102-1.5691.6379-.4406.4262-.6598.9703-.6609 1.6586.0011.68829998.2203 1.23239998.6609 1.65859998.4449.4277.9609.6371 1.5691.6379.6762-.0016 1.1868-.225 1.5661-.6762l.0703-.0836.6043.6051.0648.0648-.059.07c-.2457.2929-.573.5254-.9754.698-.4031.1731-.8285.2598016-1.2711.2598016-.889.0007984-1.6562-.3117016-2.2785-.9301016-.6246-.6172-.9394-1.393-.9386015-2.30429998-.0007985-.9109.3140015-1.6871.9390015-2.3047.6219-.618 1.3891-.9301 2.2781-.92930155.9258-.00079845 1.6938.30670155 2.2766.91880155l-.0723.0691.0707-.0707c.518.5176.775 1.2168.7743014 2.0734z" transform="matrix(1 -0 -0 -1 0 19.9996)"/><path d="m52.0277 12.2629h-2.7324v-1.9024h2.4641v-.721h-2.4641v-1.9024h2.7324v-.7371h-3.5027v6h3.5027z" transform="matrix(1 -0 -0 -1 0 20)"/><path d="m52.0277 12.2629v.1h-2.8324v-2.1024h2.4641v-.5207l-2.4641-.0003v-2.1024h2.7324v-.5371h-3.3027v5.8h3.3027v-.6371h.1v.1-.1h.1v.7371.1h-3.7027v-6.2h3.7027v.8371.1h-2.7324v1.7024h2.4641v.821.1h-2.4641v1.7024h2.7324v.1z" transform="matrix(1 -0 -0 -1 0 20)"/><path d="m55.2789 7h-.7715v5.2629h-1.6758v.7371h4.1231v-.7371h-1.6758z" transform="matrix(1 -0 -0 -1 0 20)"/><path d="m55.2789 7v.1h-.6715v5.2629h-1.6758v.5371h3.9231v-.5371h-1.6758v-5.3629h.1v.1-.1h.1v5.1629h1.6758v.8371.1h-4.3231v-.8371-.1h1.6758v-5.2629h.8715.1v.1z" transform="matrix(1 -0 -0 -1 0 20)"/><path d="m59.9379 7v6h.7707v-6z" transform="matrix(1 -0 -0 -1 0 20)"/><path d="m59.9379 7h.1v5.9h.5707v-5.8h-.6707v-.1h.1-.1v-.1h.7707.1v6.2h-.8707-.1v-6.2h.1z" transform="matrix(1 -0 -0 -1 0 20)"/><path d="m64.1285 7h-.7715v5.2629h-1.6757v.7371h4.123v-.7371h-1.6758z" transform="matrix(1 -0 -0 -1 0 20)"/><path d="m64.1285 7v.1h-.6715v5.2629h-1.6757v.5371h3.923v-.5371h-1.6758v-5.3629h.1v.1-.1h.1v5.1629h1.6758v.8371.1h-4.323v-.8371-.1h1.6757v-5.2629h.8715.1v.1z" transform="matrix(1 -0 -0 -1 0 20)"/><path d="m69.7793 8.2773c.4441-.4496.9875-.6742 1.6301-.6742s1.1863.2246 1.6297.6742c.4445.4496.6672 1.0243.6672 1.7223s-.2227 1.2727-.6672 1.7223c-.4434.4496-.9871.6742-1.6297.6742s-1.186-.2246-1.6301-.6742c-.4434-.4496-.666-1.0243-.666-1.7223s.2226-1.2727.666-1.7223zm3.8301-.5023c-.5899-.6066-1.3235-.9094-2.2-.9094-.8774 0-1.6106.3028-2.1992.9094-.5903.6059-.884 1.3476-.884 2.2246s.2937 1.6188.884 2.2246c.5886.6067 1.3218.9098 2.1992.9098.8719 0 1.6035-.3047 2.1961-.9137.5918-.609.8879-1.3492.8879-2.2207 0-.877-.2954-1.6187-.884-2.2246" transform="matrix(1 -0 -0 -1 0 19.9996)"/><path d="m69.7793 8.27729732-.0711-.0703c.4606-.4676 1.0352-.7051 1.7012-.70390452.6656-.00119548 1.241.23630452 1.7008.70390452.4636.468.6968 1.0735.6961016 1.7926.0006984.71909998-.2325016 1.32459998-.6961016 1.79259998-.4598.4676-1.0352.7051-1.7008.7039045-.666.0011955-1.2406-.2363045-1.7012-.7039045-.4625-.468-.6961-1.0735-.6949046-1.79259998-.0011954-.7191.2324046-1.3246.6949046-1.7926l.0711.0703.0711.0703c-.4242.4317-.6363.9747-.6371 1.652.0008.67729998.2129 1.22029998.6371 1.65199998.4281.4316.9394.6433 1.559.6445.6191-.0012 1.1316-.2129 1.5586-.6445.425-.4317.6371-.9747.6379-1.65199998-.0008-.6773-.2129-1.2203-.6379-1.652-.427-.4316-.9395-.6433-1.5586-.6445-.6196.0012-1.1309.2129-1.559.6445zm3.8301-.5023-.0715.0695c-.5734-.5875-1.2746-.8777-2.1285-.8789-.8543.0012-1.5555.2914-2.1278.8789l-.0027.0031.0027-.0031c-.5722.5895-.8546 1.3004-.8554 2.1551.0008.85469998.2832 1.56559998.8554 2.15509998.5723.5875 1.2735.8781 2.1278.8793.8484-.0012 1.548-.293 2.1246-.8836.5742-.5922.8582-1.302.8594-2.15079998-.0012-.8547-.2844-1.5656-.8555-2.1551l.0715-.0695.0719-.0695c.6062.6226.9128 1.3949.9121012 2.2941.0006988.89409998-.3071012 1.66479998-.9161012 2.29019998-.6093.6278-1.3726.9453-2.2679.9442029-.9.0010971-1.6656-.3149029-2.2711-.9403029v.0004c-.6074-.623-.9129-1.3953-.9121016-2.29449998-.0007984-.8992.3047016-1.6715.9121016-2.2945l.0027-.0028-.0027.0032c.6055-.6254 1.3711-.9407 2.2711-.93990152.8996-.00079848 1.6652.31450152 2.2719.93990152z" transform="matrix(1 -0 -0 -1 0 19.999598)"/><path d="m75.5754 7v6h.9383l2.916-4.6676h.0332l-.0332 1.1563v3.5113h.7715v-6h-.8047l-3.0508 4.8938h-.0332l.0332-1.1567v-3.7371z" transform="matrix(1 -0 -0 -1 0 20)"/><path d="m75.5754 7h.1v5.9h.7828l2.916-4.6676h.0887.1027l-.0359 1.2578v3.4098h.5715v-5.8h-.6492l-3.0508 4.8938h-.0887-.1027l.0359-1.2583v-3.6355h-.6703v-.1h.1-.1v-.1h.7703.1v3.8387l-.0332 1.1578-.1-.0027v-.1h.0332v.1l-.0848-.0532 3.0801-4.9406h.8602.1v6.2h-.8715-.1v-3.6125l.0332-1.1578.1.0027v.1h-.0332v-.1l.0848.0531-2.9454 4.7145h-.9937-.1v-6.2h.1z" transform="matrix(1 -0 -0 -1 0 20)"/><path d="m106.936 21.1235h1.866v12.5012h-1.866zm16.807 7.998-2.139-5.4199h-.064l-2.22 5.4199h-2.01l3.329-7.5753-1.898-4.2137h1.947l5.13 11.789zm-10.582-6.5781c-.612 0-1.464.3055-1.464 1.0617 0 .9649 1.062 1.3348 1.978 1.3348.821 0 1.206-.1769 1.705-.4184-.145-1.1578-1.142-1.9781-2.219-1.9781zm.225 6.8516c-1.351 0-2.75-.5953-3.329-1.9141l1.656-.6914c.354.6914 1.013.9168 1.705.9168.965 0 1.946-.5793 1.962-1.6086v-.1285c-.338.193-1.061.4824-1.946.4824-1.785 0-3.603-.9808-3.603-2.8144 0-1.6727 1.464-2.7504 3.104-2.7504 1.255 0 1.946.5629 2.381 1.2222h.064v-.9648h1.801v4.793c0 2.2191-1.656 3.4578-3.795 3.4578zm-11.532-1.7953h-2.654v4.2851h2.654c1.395 0 2.187-1.155 2.187-2.1425 0-.9688-.792-2.1426-2.187-2.1426zm-.048 6.025h-4.471v-12.5012h1.865v4.7363h2.606c2.068 0 4.101 1.4973 4.101 3.8825 0 2.3851-2.033 3.8824-4.101 3.8824zm-24.381-11.0836c-1.2891 0-2.3684 1.0793-2.3684 2.5617 0 1.498 1.0793 2.5937 2.3684 2.5937 1.2727 0 2.2715-1.0957 2.2715-2.5937 0-1.4824-.9988-2.5617-2.2715-2.5617zm2.1426 5.8804h-.0645c-.4187.4993-1.2246.9504-2.2394.9504-2.1266 0-4.0758-1.8687-4.0758-4.2691 0-2.3844 1.9492-4.2371 4.0758-4.2371 1.0148 0 1.8207.4512 2.2394.9664h.0645v-.6121c0-1.6274-.8699-2.4973-2.2715-2.4973-1.1438 0-1.8527.8219-2.143 1.5145l-1.6269-.6766c.4672-1.1277 1.7078-2.5133 3.7699-2.5133 2.191 0 4.0437 1.2891 4.0437 4.4305v7.6363h-1.7722zm3.0609-7.298h1.8688v12.5016h-1.8688zm4.6238 4.1242c-.0484 1.6434 1.2727 2.4809 2.2231 2.4809.7416 0 1.3696-.3703 1.5786-.9024zm5.7997 1.4176c-.354.9508-1.434 2.7066-3.6411 2.7066-2.191 0-4.0113-1.7238-4.0113-4.2531 0-2.3844 1.8043-4.2531 4.2207-4.2531 1.9497 0 3.0777 1.1922 3.5447 1.8848l-1.45.9668c-.483-.709-1.144-1.1762-2.0947-1.1762-.9504 0-1.6269.4351-2.0621 1.2887l5.6868 2.3523zm-45.3082 1.4016v-1.8043h4.3175c-.1289-1.0149-.4672-1.7559-.9828-2.2715-.6281-.6285-1.6109-1.3211-3.3347-1.3211-2.6583 0-4.7364 2.1426-4.7364 4.8008s2.0781 4.8011 4.7364 4.8011c1.4339 0 2.4808-.564 3.2542-1.289l1.2727 1.2726c-1.0793 1.0313-2.5133 1.8207-4.5269 1.8207-3.6411 0-6.702-2.9644-6.702-6.6054s3.0609-6.6051 6.702-6.6051c1.9656 0 3.4476.6441 4.6074 1.8527 1.1922 1.1922 1.5629 2.8676 1.5629 4.2207 0 .4192-.0321.8055-.0969 1.1278zm11.0789-5.5258c-1.2891 0-2.4008 1.0633-2.4008 2.5777 0 1.5305 1.1117 2.5777 2.4008 2.5777 1.2886 0 2.4003-1.0472 2.4003-2.5777 0-1.5144-1.1117-2.5777-2.4003-2.5777zm0 6.8308c-2.3524 0-4.2696-1.7882-4.2696-4.2531 0-2.4488 1.9172-4.2531 4.2696-4.2531 2.3519 0 4.2691 1.8043 4.2691 4.2531 0 2.4649-1.9172 4.2531-4.2691 4.2531zm9.3132-6.8308c-1.2886 0-2.4004 1.0633-2.4004 2.5777 0 1.5305 1.1118 2.5777 2.4004 2.5777 1.2887 0 2.4004-1.0472 2.4004-2.5777 0-1.5144-1.1117-2.5777-2.4004-2.5777zm0 6.8308c-2.3523 0-4.2691-1.7882-4.2691-4.2531 0-2.4488 1.9168-4.2531 4.2691-4.2531 2.352 0 4.2692 1.8043 4.2692 4.2531 0 2.4649-1.9172 4.2531-4.2692 4.2531" transform="matrix(1 -0 -0 -1 0 51.1235)"/></g><g fill="url(#a)" mask="url(#m)" transform="matrix(1 -0 -0 -1 9.9727 32.3895)"><path d="m.5371 0-.0743.0711c-.291.3079-.4628.786-.4628 1.4051v-.1457 22.116.0051c0-.0019 0-.0035 0-.0055v-.1461c0 .6704.2003 1.1754.5359 1.4782l12.3898-12.3895zm-.5371 23.4528c0 .0551.0015.1086.0043.1613-.0028-.0523-.0043-.1062-.0043-.1613"/></g><g fill="url(#b)" mask="url(#n)" transform="matrix(1 -0 -0 -1 22.8984 24.2785)"><path d="m4.1293 0 .0942.0535 4.8929 2.7801c.4665.2652.7774.5867.9325.9269-.1547-.3402-.4657-.6621-.9325-.9273l-4.8929-2.7801zm.0012.1465-4.1305 4.1312 4.1301 4.1305 4.9863-2.8328c.6332-.3598.9887-.8235 1.0481-1.2973 0-.0004 0-.0012 0-.0019-.0594-.4727-.4149-.9368-1.0481-1.2965z"/></g><g fill="url(#c)" mask="url(#o)" transform="matrix(1 -0 -0 -1 10.4418 32.8613)"><path d="m.9512 0c-.3461 0-.6481.1125-.8836.325l.0004.0004c.2355-.2125.5379-.3254.884-.3254.03 0 .0605.0008.0914.0023-.0313-.0015-.0622-.0023-.0922-.0023m.0004.14649894c-.3461-.00039894-.6481.11250106-.8836.32500106v.0003l12.3886 12.3887 4.1305-4.1312-14.5152-8.2473c-.4016-.2277-.7821-.33550106-1.1203-.33550106m-.8871.18120106c-.0219.0199-.0434.041-.0645.0629z"/></g><g fill="url(#d)" mask="url(#p)" transform="matrix(1 -0 -0 -1 10.5086 20.0008)"><path d="m12.3898 0-12.3898 12.3895c.2355.2121.5371.3246.8828.3246.3391 0 .7199-.1082 1.1223-.3363l14.5148-8.2473zm4.2235 4.2238-14.6082 8.3c-.4024.2282-.7832.3364-1.1223.3364-.0016 0-.0027 0-.0043 0h.0059c.3383 0 .7187-.1078 1.1207-.336z"/></g><path d="m11.4852 24.2785c.3144.018.6625.1262 1.0285.3336l14.514 8.2469-14.514-8.2469c-.3657-.2078-.7141-.3156-1.0285-.3336" fill="#000" transform="matrix(1 -0 -0 -1 0 57.1375)"/><g fill="url(#e)" mask="url(#q)" transform="matrix(1 -0 -0 -1 27.0248 25.20175)"><path d="m.00773333.062.2512.14266666z"/></g><g fill="url(#f)" mask="url(#r)" transform="matrix(1 -0 -0 -1 10.4355 32.8613)"><path d="m.9583-0c-.3461 0-.6485.1129-.884.3254l-.0004-.0004c-.0008.0008-.002.0019-.0031.0027l-.0645.0629c-.002.002-.0039.0043-.0063.0066l.0743.0743c.2355-.2125.5375-.3254.8836-.325.3382 0 .7187.1078 1.1203.3355l14.5152 8.2473.093-.093-.0942-.0535-14.514-8.2469c-.366-.2074-.7141-.3156-1.0285-.3336-.0309-.0015-.0614-.0023-.0914-.0023"/></g><path d="m10.4355 31.059c-.291.3079-.4628.786-.4628 1.4051v.0004c0-.6195.1718-1.0972.4628-1.4051z" fill="#000" transform="matrix(1 -0 -0 -1 0 63.5235)"/><g fill="url(#g)" mask="url(#s)" transform="matrix(1 -0 -0 -1 9.9727 32.4641)"><path d="m.8616645 0c-.54179855.3079-.8616645.7856-.8616645 1.4051v.1457c0-.6191.31986595-1.0972.8616645-1.4051l.1383355-.0711z"/></g><g fill="url(#h)" mask="url(#t)" transform="matrix(1 -0 -0 -1 10.42265 33.3768)"><path d="m.03426667.03386667.19813332.19893332v-.0008z"/></g><path d="m32.9473 20.0016c.0769.1688.1156.3422.1156.5157v.0007c0-.1738-.0387-.3472-.1156-.5164" fill="#000" transform="matrix(1 -0 -0 -1 0 40.5196)"/><g fill="url(#i)" mask="url(#u)" transform="matrix(1 -0 -0 -1 27.0289 24.225)"><path d="m.093 0-.093.093 4.9859 2.8332c.6332.3597.9887.8238 1.0481 1.2965 0-.1735-.0387-.3469-.1156-.5157-.1551-.3402-.466-.6617-.9325-.9269z"/></g><path d="m33.0629014 15.777v.0004c-.0004014.5231-.3500014 1.0461-1.0481014 1.443l-4.8929 2.7801h-.0004l.0004.0003 4.8929-2.78c.6989-.3969 1.0489-.9207 1.0481014-1.4438" fill="#404040" transform="matrix(1 -0 -0 -1 0 35.7778)"/><g fill="url(#j)" mask="url(#v)" transform="matrix(1 -0 -0 -1 27.0285 20.0004)"><path d="m6.0344 0c-.0594.4738-.4149.9375-1.0481 1.2973l-4.9863 2.8328.093.093h.0004l4.8929-2.7801c.6981-.3969 1.0477-.9199 1.0481-1.443"/></g><path d="m9.9773 7.1406c.0579 1.0273.6165 1.6207 1.4067 1.6242-.3426-.002-.641-.1145-.8746-.325v.0004l-.0028-.0028c-.0246-.0222-.048-.0457-.0711-.0699-.2625-.2777-.4281-.6937-.4582-1.2269" fill="#404040" transform="matrix(1 -0 -0 -1 0 15.9054)"/><g fill="url(#k)" mask="url(#w)" transform="matrix(1 -0 -0 -1 9.9727 9.0895)"><path d="m0 0v.1461.0055.0012c0 .0551.00279903.109.00802389.1613v.0024c0 .0007 0 .0015.0005598.0023v.0047.0012c.0561672.5332.36518007.9492.85501026 1.2269l.13640605-.0734c-.62623624-.3028-1-.8078-1-1.4782"/></g><path d="m11.384 7.1406h.0031c-.0012 0-.0023 0-.0031 0" fill="#404040" transform="matrix(1 -0 -0 -1 0 14.2812)"/><g fill="url(#l)" mask="url(#x)" transform="matrix(1 -0 -0 -1 10.4355 15.8703)"><path d="m16.593 0-14.5148 8.2473c-.4024.2281-.7832.3363-1.1223.3363-.3457 0-.6473-.1125-.8828-.3246l-.0731.0734c.0231.0242.0465.0477.0711.0699.0008.0008.002.0016.0028.0024.2336.2105.532.323.8746.325h.0031.0043c.3391 0 .7199-.1082 1.1223-.3364l14.6082-8.3-.0004-.0003z"/></g></g></svg>